<?xml version="1.0" standalone="no"?>
<!DOCTYPE svg PUBLIC "-//W3C//DTD SVG 20010904//EN"
 "http://www.w3.org/TR/2001/REC-SVG-20010904/DTD/svg10.dtd">
<svg version="1.0" xmlns="http://www.w3.org/2000/svg"
 width="500.000000pt" height="500.000000pt" viewBox="0 0 500.000000 500.000000"
 preserveAspectRatio="xMidYMid meet">
<metadata>
Created by potrace 1.14, written by Peter Selinger 2001-2017
</metadata>
<g transform="translate(0.000000,500.000000) scale(0.100000,-0.100000)"
fill="#000000" stroke="none">
<path d="M2510 3320 c-60 -10 -152 -43 -204 -74 -52 -30 -128 -110 -155 -164
-50 -97 -49 -263 1 -370 28 -60 117 -154 200 -212 l68 -48 -78 -45 c-186 -108
-277 -237 -285 -404 -14 -276 153 -459 458 -500 72 -10 231 -7 301 6 267 49
430 242 418 496 -8 178 -98 293 -331 425 l-62 36 76 44 c91 54 180 140 216
207 56 109 60 250 9 366 -50 112 -173 197 -340 231 -69 14 -222 17 -292 6z
m273 -191 c66 -21 107 -52 147 -108 18 -26 24 -49 26 -106 2 -40 -2 -90 -8
-111 -20 -73 -85 -141 -198 -207 -89 -51 -90 -51 -189 -2 -112 57 -181 118
-211 187 -18 43 -22 65 -18 128 6 94 35 145 110 193 77 48 236 61 341 26z
m-105 -795 c153 -61 275 -152 316 -237 49 -103 23 -251 -58 -328 -34 -33 -109
-72 -168 -87 -63 -17 -235 -7 -300 16 -133 47 -201 150 -194 294 7 148 75 234
261 335 33 18 64 33 68 33 5 0 39 -12 75 -26z"/>
<path d="M1135 2873 c-98 -19 -200 -71 -257 -129 -27 -26 -48 -51 -48 -56 0
-4 -4 -8 -9 -8 -9 0 -19 32 -27 85 -2 16 -6 39 -8 50 -3 11 -5 26 -5 33 -1 9
-26 12 -91 12 l-90 0 0 -670 0 -670 110 0 110 0 1 378 c1 207 2 391 3 407 6
100 45 220 91 281 56 73 168 114 302 109 123 -4 175 -24 228 -89 62 -76 65
-104 65 -623 l0 -463 110 0 110 0 0 483 c-1 504 -4 550 -47 652 -43 103 -132
174 -263 210 -73 20 -203 24 -285 8z"/>
<path d="M4132 2878 c-110 -17 -229 -99 -307 -212 -21 -31 -40 -55 -41 -53 -4
4 -26 193 -27 235 0 10 -22 12 -91 10 l-91 -3 0 -668 0 -668 110 3 110 3 0
400 c1 386 2 402 24 469 37 115 110 203 207 250 84 41 130 47 257 32 26 -4 47
-3 47 1 0 5 7 49 14 98 8 50 12 91 11 93 -3 4 -53 10 -125 15 -25 2 -69 0 -98
-5z"/>
</g>
</svg>
